<svg id="flag" xmlns="http://www.w3.org/2000/svg" width="248" height="80.255" viewBox="0 0 248 80.255">
  <circle id="base" cx="40" cy="40" r="40" transform="translate(168 80) rotate(-90)" fill="#ce6f97"/>
  <path id="長方形_1258" data-name="長方形 1258" d="M250,1077.745H458V1158H250Z" transform="translate(-250 -1077.745)" fill="#ce6f97"/>
  <path id="パス_2638" data-name="パス 2638" d="M-82.42-18.98c-4.784,0-7.852,3.666-7.852,9.386,0,5.8,3.016,9.464,7.826,9.464,4.784,0,7.826-3.666,7.826-9.438C-74.62-15.262-77.688-18.98-82.42-18.98Zm-.052,1.924c3.276,0,5.356,2.912,5.356,7.462,0,4.472-2.132,7.462-5.33,7.462s-5.33-2.964-5.33-7.462C-87.776-14.118-85.7-17.056-82.472-17.056Zm15.08.676.156.338C-65.78-13-65.6-12.61-65-11.57l5.642,9.646c.7,1.2,1.17,1.586,1.924,1.586.858,0,1.326-.6,1.326-1.638V-17.784a1,1,0,0,0-1.118-.988,1.017,1.017,0,0,0-1.144.988V-10.3c0,1.43.078,4.68.182,6.214h-.1l-.39-.78a45.148,45.148,0,0,0-2.106-4.16l-4.68-8.008c-.754-1.3-1.352-1.742-2.314-1.742a1.708,1.708,0,0,0-1.794,1.742V-1.3a1.032,1.032,0,0,0,1.144.988A1.032,1.032,0,0,0-67.288-1.3V-9.828c0-2.652-.078-5.07-.208-6.552Zm19.578-1.378a1.068,1.068,0,0,0-1.2-1.014,1.059,1.059,0,0,0-1.17,1.014V-3.3A2.482,2.482,0,0,0-47.372-.494h6.656a.976.976,0,0,0,.936-1.04.96.96,0,0,0-.936-1.04h-5.928a1.045,1.045,0,0,1-1.17-1.17Zm14.612,0a1.059,1.059,0,0,0-1.17-1.014,1.059,1.059,0,0,0-1.17,1.014V-1.326a1.059,1.059,0,0,0,1.17,1.014A1.059,1.059,0,0,0-33.2-1.326Zm8.554,1.378.156.338c1.456,3.042,1.638,3.432,2.236,4.472l5.642,9.646c.7,1.2,1.17,1.586,1.924,1.586.858,0,1.326-.6,1.326-1.638V-17.784a1,1,0,0,0-1.118-.988,1.017,1.017,0,0,0-1.144.988V-10.3c0,1.43.078,4.68.182,6.214h-.1l-.39-.78a45.147,45.147,0,0,0-2.106-4.16l-4.68-8.008c-.754-1.3-1.352-1.742-2.314-1.742a1.708,1.708,0,0,0-1.794,1.742V-1.3a1.032,1.032,0,0,0,1.144.988A1.032,1.032,0,0,0-24.544-1.3V-9.828c0-2.652-.078-5.07-.208-6.552Zm19.63,7.436H2a.847.847,0,0,0,.884-.936A.853.853,0,0,0,2-10.79h-7.02v-5.1a.719.719,0,0,1,.806-.78H3.042a.891.891,0,0,0,.884-.988.875.875,0,0,0-.884-.936H-4.394a2.6,2.6,0,0,0-2.938,2.938v12.22A2.6,2.6,0,0,0-4.394-.494H3.3a.921.921,0,0,0,.884-.988A.905.905,0,0,0,3.3-2.47H-4.03a.88.88,0,0,1-.988-.988Zm19.552-1.95c-3.016-1.3-3.64-1.872-3.64-3.354,0-1.69,1.274-2.808,3.2-2.808a4.179,4.179,0,0,1,3.536,1.69c.364.494.624.65,1.066.65a1.066,1.066,0,0,0,1.066-1.04c0-1.56-2.886-3.2-5.642-3.2-3.3,0-5.59,2.028-5.59,4.966a3.786,3.786,0,0,0,1.43,3.094A12.3,12.3,0,0,0,13-9.256l.624.26C16.9-7.618,17.862-6.76,17.862-5.07c0,1.742-1.43,2.964-3.51,2.964A5.07,5.07,0,0,1,10.426-3.9a1.242,1.242,0,0,0-1.118-.624,1.043,1.043,0,0,0-1.04,1.04c0,.676.546,1.326,1.69,2.08A7.488,7.488,0,0,0,14.378-.13c3.562,0,5.9-2.054,5.9-5.174a4.473,4.473,0,0,0-1.352-3.25,10.02,10.02,0,0,0-3.224-1.82l-.338-.156Zm14.82-5.746V-1.326a1.045,1.045,0,0,0,1.17,1.014,1.059,1.059,0,0,0,1.17-1.014V-16.64h5.018a.9.9,0,0,0,.91-.988.917.917,0,0,0-.91-.962H24.336a.91.91,0,0,0-.91.988.888.888,0,0,0,.91.962Zm19.188-2.34c-4.784,0-7.852,3.666-7.852,9.386,0,5.8,3.016,9.464,7.826,9.464,4.784,0,7.826-3.666,7.826-9.438C56.342-15.262,53.274-18.98,48.542-18.98Zm-.052,1.924c3.276,0,5.356,2.912,5.356,7.462,0,4.472-2.132,7.462-5.33,7.462s-5.33-2.964-5.33-7.462C43.186-14.118,45.266-17.056,48.49-17.056ZM63.726-8.268h1.56c2.548,0,3.51,1.066,6.24,6.708.494,1.066.7,1.248,1.4,1.248.728,0,1.274-.39,1.274-.91,0-.7-1.4-3.3-2.964-5.564A5.529,5.529,0,0,0,68.562-8.97v-.078c2.912-.442,4.654-2.158,4.654-4.576a4.6,4.6,0,0,0-2.444-4.108,8.684,8.684,0,0,0-4.16-.858H64.3a2.567,2.567,0,0,0-2.912,2.912V-1.326a1.059,1.059,0,0,0,1.17,1.014,1.059,1.059,0,0,0,1.17-1.014Zm0-1.82V-15.73c0-.676.338-.988,1.014-.988h1.482c2.912,0,4.576,1.17,4.576,3.224,0,2.158-1.742,3.406-4.81,3.406ZM81.3-8.944h7.02a.847.847,0,0,0,.884-.936.853.853,0,0,0-.884-.91H81.3v-5.1a.719.719,0,0,1,.806-.78h7.254a.891.891,0,0,0,.884-.988.875.875,0,0,0-.884-.936H81.926a2.6,2.6,0,0,0-2.938,2.938v12.22A2.6,2.6,0,0,0,81.926-.494h7.7a.921.921,0,0,0,.884-.988.905.905,0,0,0-.884-.988H82.29a.88.88,0,0,1-.988-.988ZM-19.786,13.62H-24.31a.815.815,0,0,0-.806.884.83.83,0,0,0,.806.884h7.176a26.932,26.932,0,0,1-1.326,6.5c-1.352-1.638-1.352-1.638-3.2-3.718-.442-.494-.546-.572-.884-.572a1.036,1.036,0,0,0-.988.936.945.945,0,0,0,.364.754c.988,1.092,2.47,2.834,3.926,4.68a16.368,16.368,0,0,1-4.524,5.668c-.78.546-.858.65-.858,1.092a1.075,1.075,0,0,0,1.014,1.118c.338,0,.6-.156,1.326-.78a20.109,20.109,0,0,0,4.316-5.434c.234.312.468.65.754,1.04a17.369,17.369,0,0,1,1.274,1.794,1.092,1.092,0,0,0,.806.39,1.01,1.01,0,0,0,1.014-.988c0-.39,0-.39-1.248-2.106L-16.64,24.1l-.416-.52a32.169,32.169,0,0,0,1.872-8.19h1.638a1.178,1.178,0,0,0-.078.416.838.838,0,0,0,.806.91h5.98V28.752c0,.624-.182.78-.91.78-.806,0-1.976-.078-2.626-.156a2.94,2.94,0,0,0-.364-.026c-.468,0-.806.416-.806,1.014,0,.91.7,1.118,3.692,1.118,2.314,0,2.938-.442,2.938-2.028V16.714H-2.6a.858.858,0,0,0,.832-.91.858.858,0,0,0-.832-.91H-5.044V9.486a.893.893,0,0,0-.962-.858.878.878,0,0,0-.962.858v5.408H-13.13a.95.95,0,0,0,.078-.39.811.811,0,0,0-.78-.884h-4.082V9.46A.87.87,0,0,0-18.85,8.6a.87.87,0,0,0-.936.858Zm7.436,4.862a1.037,1.037,0,0,0-1.066.962c0,.26.026.338.286.728a40.76,40.76,0,0,1,2.366,4.186c.39.754.546.884,1.066.884a1.011,1.011,0,0,0,1.04-1.04,1.356,1.356,0,0,0-.156-.572c-.52-1.04-1.3-2.418-1.9-3.354C-11.856,18.56-11.908,18.482-12.35,18.482Zm25.9-6.422H6.162a1.793,1.793,0,0,0-2.028,2.028v6.058c0,3.874-.572,6.786-1.82,9-.494.884-.494.884-.494,1.17a1.141,1.141,0,0,0,1.144,1.066c.572,0,.988-.494,1.612-1.924,1.092-2.5,1.586-5.954,1.586-11.31V14.53a.568.568,0,0,1,.65-.65H24.05a.914.914,0,0,0,0-1.82H15.626V9.434a.96.96,0,0,0-1.04-.936.96.96,0,0,0-1.04.936Zm.052,2.574a1.11,1.11,0,0,0-.91,1.014.95.95,0,0,0,.468.754c.754.65,1.95,1.794,2.886,2.782.494.52.624.6.988.6a1.033,1.033,0,0,0,1.014-1.014,1.012,1.012,0,0,0-.338-.754,24.908,24.908,0,0,0-2.34-2.262C14.274,14.842,13.962,14.634,13.6,14.634Zm.182,4.992a.893.893,0,0,0-.962-.858.878.878,0,0,0-.962.858v9.75c0,1.43,1.04,1.924,4.108,1.924a11.975,11.975,0,0,0,2.86-.286,1.793,1.793,0,0,0,1.534-1.56,24.132,24.132,0,0,0,.338-3.64c0-.78-.312-1.144-1.014-1.144-.728,0-1.04.312-1.04,1.118a8.547,8.547,0,0,1-.39,3.12c-.208.39-.7.494-2.444.494-1.716,0-2.028-.182-2.028-1.17Zm-4.5.832c-.494,0-.754.26-.858.806A25.752,25.752,0,0,1,6.63,27.582c-.312.676-.364.806-.364,1.066a1.06,1.06,0,0,0,1.092.936c.6,0,.858-.286,1.352-1.534a31.371,31.371,0,0,0,1.69-6.63C10.4,20.822,9.958,20.458,9.282,20.458Zm11.466-.468a1.15,1.15,0,0,0-1.118.988,1.376,1.376,0,0,0,.286.728,51.521,51.521,0,0,1,3.172,5.9c.26.546.26.546.286.6a1.038,1.038,0,0,0,.884.52A1.13,1.13,0,0,0,25.35,27.66a26.206,26.206,0,0,0-2.626-5.33C21.554,20.38,21.216,19.99,20.748,19.99Z" transform="translate(117 35)" fill="#fff"/>
</svg>
