<svg xmlns="http://www.w3.org/2000/svg" width="97.919" height="26.993" viewBox="0 0 97.919 26.993">
  <g id="_02" data-name="02" transform="translate(-114.419 -33.826)">
    <path id="パス_2627" data-name="パス 2627" d="M-27.808-11.572H-30.6a.483.483,0,0,0-.462.528.5.5,0,0,0,.462.528h2.618L-28.644-7H-30.8a.486.486,0,0,0-.484.528.513.513,0,0,0,.484.528h2L-29.832-.572a.9.9,0,0,0-.022.242c0,.33.242.528.638.528a.593.593,0,0,0,.594-.528l1.078-5.61h2.992l-.9,5.39a.758.758,0,0,0-.022.2c0,.352.242.55.638.55.352,0,.506-.154.572-.506l.99-5.632h2.882a.483.483,0,0,0,.462-.528A.47.47,0,0,0-20.394-7h-2.75l.638-3.52h2.244a.483.483,0,0,0,.462-.528.483.483,0,0,0-.462-.528h-2.112l.7-3.894a.43.43,0,0,0,.022-.154.614.614,0,0,0-.682-.572c-.33,0-.528.176-.594.55l-.7,4.07H-26.51l.726-3.872a.547.547,0,0,0,.022-.176c0-.352-.242-.572-.66-.572a.582.582,0,0,0-.616.528Zm1.122,1.056h2.926L-24.4-7h-2.97Zm12.408-4.51a.9.9,0,0,0-.99-.858.9.9,0,0,0-.99.858v13.9a.9.9,0,0,0,.99.858.9.9,0,0,0,.99-.858Zm7.854.946V-1.122a.884.884,0,0,0,.99.858.9.9,0,0,0,.99-.858V-14.08H-.2a.758.758,0,0,0,.77-.836A.776.776,0,0,0-.2-15.73H-10.67a.77.77,0,0,0-.77.836.751.751,0,0,0,.77.814ZM5.082-7.568h5.94a.717.717,0,0,0,.748-.792.722.722,0,0,0-.748-.77H5.082v-4.312a.609.609,0,0,1,.682-.66H11.9a.754.754,0,0,0,.748-.836.74.74,0,0,0-.748-.792H5.61a2.2,2.2,0,0,0-2.486,2.486V-2.9A2.2,2.2,0,0,0,5.61-.418h6.512a.779.779,0,0,0,.748-.836.766.766,0,0,0-.748-.836h-6.2a.745.745,0,0,1-.836-.836Zm12.65-6.446h.11c.4,1.3,1.188,3.7,1.606,4.774l2.618,7.128a1.079,1.079,0,0,0,1.144.792,1.1,1.1,0,0,0,1.1-.792L26.928-9.24c.44-1.188,1.166-3.344,1.606-4.774h.11l-.022.33c-.132,2.728-.176,4.026-.176,5.082v7.5a.866.866,0,0,0,.946.836.878.878,0,0,0,.946-.836V-14.278a1.48,1.48,0,0,0-1.518-1.606c-1.012,0-1.452.4-1.936,1.738l-2.4,6.534c-.528,1.452-.99,2.86-1.254,3.806h-.088c-.308-1.1-.638-2.134-1.254-3.806l-2.4-6.534c-.484-1.32-.946-1.738-1.914-1.738a1.473,1.473,0,0,0-1.54,1.606V-1.1a.866.866,0,0,0,.946.836A.866.866,0,0,0,17.93-1.1V-8.6c0-1.1-.044-2.332-.176-5.1Z" transform="translate(182 58)" fill="#fff"/>
    <g id="check" transform="translate(114.419 35.236)">
      <g id="パス_2570" data-name="パス 2570" transform="translate(0 4.583)" fill="none">
        <path d="M0,0H21V21H0Z" stroke="none"/>
        <path d="M 2 2 L 2 19 L 19 19 L 19 2 L 2 2 M 0 0 L 21 0 L 21 21 L 0 21 L 0 0 Z" stroke="none" fill="#fff"/>
      </g>
      <path id="パス_2569" data-name="パス 2569" d="M192.773,711.631l5.713,7.27,15.1-17.484" transform="translate(-188 -701.417)" fill="none" stroke="#d2cdad" stroke-linecap="round" stroke-width="2"/>
    </g>
  </g>
</svg>
