<svg xmlns="http://www.w3.org/2000/svg" width="136.982" height="29.48" viewBox="0 0 136.982 29.48">
  <g id="_02" data-name="02" transform="translate(-284.904 -699.826)">
    <path id="パス_2615" data-name="パス 2615" d="M-42.976-17.884h-4.318a.746.746,0,0,0-.714.816.766.766,0,0,0,.714.816h4.046l-1.02,5.44H-47.6a.752.752,0,0,0-.748.816.793.793,0,0,0,.748.816h3.094l-1.6,8.3a1.4,1.4,0,0,0-.034.374c0,.51.374.816.986.816a.916.916,0,0,0,.918-.816l1.666-8.67h4.624L-39.338-.85a1.171,1.171,0,0,0-.034.306c0,.544.374.85.986.85.544,0,.782-.238.884-.782l1.53-8.7h4.454A.746.746,0,0,0-30.8-10a.727.727,0,0,0-.714-.816h-4.25l.986-5.44h3.468a.746.746,0,0,0,.714-.816.746.746,0,0,0-.714-.816h-3.264L-33.49-23.9a.664.664,0,0,0,.034-.238.949.949,0,0,0-1.054-.884c-.51,0-.816.272-.918.85l-1.088,6.29H-40.97l1.122-5.984a.845.845,0,0,0,.034-.272c0-.544-.374-.884-1.02-.884a.9.9,0,0,0-.952.816Zm1.734,1.632h4.522l-.986,5.44H-42.3Zm19.176-6.97a1.385,1.385,0,0,0-1.53-1.326,1.385,1.385,0,0,0-1.53,1.326V-1.734A1.385,1.385,0,0,0-23.6-.408a1.385,1.385,0,0,0,1.53-1.326ZM-9.928-21.76V-1.734A1.366,1.366,0,0,0-8.4-.408a1.385,1.385,0,0,0,1.53-1.326V-21.76H-.306a1.172,1.172,0,0,0,1.19-1.292A1.2,1.2,0,0,0-.306-24.31H-16.49a1.19,1.19,0,0,0-1.19,1.292,1.161,1.161,0,0,0,1.19,1.258ZM7.854-11.7h9.18A1.108,1.108,0,0,0,18.19-12.92a1.116,1.116,0,0,0-1.156-1.19H7.854v-6.664a.941.941,0,0,1,1.054-1.02h9.486a1.165,1.165,0,0,0,1.156-1.292,1.144,1.144,0,0,0-1.156-1.224H8.67c-2.55,0-3.842,1.292-3.842,3.842v15.98c0,2.55,1.292,3.842,3.842,3.842H18.734A1.2,1.2,0,0,0,19.89-1.938,1.184,1.184,0,0,0,18.734-3.23H9.146A1.151,1.151,0,0,1,7.854-4.522ZM27.4-21.658h.17c.612,2.006,1.836,5.712,2.482,7.378L34.1-3.264A1.668,1.668,0,0,0,35.87-2.04a1.7,1.7,0,0,0,1.7-1.224L41.616-14.28c.68-1.836,1.8-5.168,2.482-7.378h.17l-.034.51c-.2,4.216-.272,6.222-.272,7.854V-1.7A1.338,1.338,0,0,0,45.424-.408,1.357,1.357,0,0,0,46.886-1.7V-22.066a2.287,2.287,0,0,0-2.346-2.482c-1.564,0-2.244.612-2.992,2.686l-3.706,10.1c-.816,2.244-1.53,4.42-1.938,5.882h-.136c-.476-1.7-.986-3.3-1.938-5.882l-3.706-10.1c-.748-2.04-1.462-2.686-2.958-2.686a2.277,2.277,0,0,0-2.38,2.482V-1.7A1.338,1.338,0,0,0,26.248-.408,1.338,1.338,0,0,0,27.71-1.7V-13.294c0-1.7-.068-3.6-.272-7.888Z" transform="translate(375 729)" fill="#fff"/>
    <g id="check" transform="translate(284.904 701.236)">
      <g id="パス_2570" data-name="パス 2570" transform="translate(0 4.583)" fill="none">
        <path d="M0,0H21V21H0Z" stroke="none"/>
        <path d="M 2 2 L 2 19 L 19 19 L 19 2 L 2 2 M 0 0 L 21 0 L 21 21 L 0 21 L 0 0 Z" stroke="none" fill="#fff"/>
      </g>
      <path id="パス_2569" data-name="パス 2569" d="M192.773,711.631l5.713,7.27,15.1-17.484" transform="translate(-188 -701.417)" fill="none" stroke="#d2cdad" stroke-linecap="round" stroke-width="2"/>
    </g>
  </g>
</svg>
