<svg xmlns="http://www.w3.org/2000/svg" width="148.324" height="46.104" viewBox="0 0 148.324 46.104">
  <path id="パス_2626" data-name="パス 2626" d="M-31.064-11.594h-2.794a.483.483,0,0,0-.462.528.476.476,0,0,0,.462.506h2.618l-.66,3.542h-2.156a.486.486,0,0,0-.484.528.513.513,0,0,0,.484.528h2L-33.088-.594a.619.619,0,0,0-.022.176.568.568,0,0,0,.638.594.6.6,0,0,0,.594-.55L-30.8-5.962h2.992l-.9,5.39a.758.758,0,0,0-.022.2c0,.352.242.55.638.55.352,0,.506-.154.572-.506l.99-5.632h2.882a.483.483,0,0,0,.462-.528.47.47,0,0,0-.462-.528H-26.4l.638-3.542h2.244a.476.476,0,0,0,.462-.506.483.483,0,0,0-.462-.528H-25.63l.7-3.894a.429.429,0,0,0,.022-.154.614.614,0,0,0-.682-.572c-.33,0-.528.176-.594.55l-.7,4.07h-2.882l.726-3.872a.547.547,0,0,0,.022-.176c0-.352-.242-.572-.66-.572a.582.582,0,0,0-.616.528Zm1.122,1.034h2.926l-.638,3.542h-2.97Zm18.876,1.342c-2.552-1.1-3.08-1.584-3.08-2.838a2.41,2.41,0,0,1,2.706-2.376A3.536,3.536,0,0,1-8.448-13c.308.418.528.55.9.55a.9.9,0,0,0,.9-.88c0-1.32-2.442-2.706-4.774-2.706-2.794,0-4.73,1.716-4.73,4.2a3.2,3.2,0,0,0,1.21,2.618,10.408,10.408,0,0,0,2.574,1.386l.528.22C-9.064-6.446-8.25-5.72-8.25-4.29c0,1.474-1.21,2.508-2.97,2.508A4.29,4.29,0,0,1-14.542-3.3a1.051,1.051,0,0,0-.946-.528.883.883,0,0,0-.88.88c0,.572.462,1.122,1.43,1.76A6.336,6.336,0,0,0-11.2-.11C-8.184-.11-6.2-1.848-6.2-4.488a3.785,3.785,0,0,0-1.144-2.75,8.478,8.478,0,0,0-2.728-1.54l-.286-.132Zm10.34,1.65H6.622v6.446a.884.884,0,0,0,.99.858.9.9,0,0,0,.99-.858v-13.9a.9.9,0,0,0-.99-.858.9.9,0,0,0-.99.858v5.852H-.726v-5.852a.9.9,0,0,0-.99-.858.9.9,0,0,0-.99.858v13.9a.9.9,0,0,0,.99.858.9.9,0,0,0,.99-.858Zm19.4-8.492c-4.048,0-6.644,3.1-6.644,7.942,0,4.906,2.552,8.008,6.622,8.008,4.048,0,6.622-3.1,6.622-7.986C25.278-12.914,22.682-16.06,18.678-16.06Zm-.044,1.628c2.772,0,4.532,2.464,4.532,6.314,0,3.784-1.8,6.314-4.51,6.314s-4.51-2.508-4.51-6.314C14.146-11.946,15.906-14.432,18.634-14.432Zm11.99,7.81h2.068c3.916,0,6.006-1.65,6.006-4.708,0-2.794-2.134-4.4-5.874-4.4H31.086a2.158,2.158,0,0,0-2.442,2.442V-1.122a.9.9,0,0,0,.99.858.9.9,0,0,0,.99-.858Zm0-1.562v-4.928a.923.923,0,0,1,1.012-1.034H32.67c2.486,0,3.96,1.078,3.96,2.882a2.767,2.767,0,0,1-1.364,2.552,5.72,5.72,0,0,1-2.9.528ZM-71.863,23h1.32c2.156,0,2.97.9,5.28,5.676.418.9.594,1.056,1.188,1.056.616,0,1.078-.33,1.078-.77,0-.594-1.188-2.794-2.508-4.708a4.678,4.678,0,0,0-2.266-1.848v-.066c2.464-.374,3.938-1.826,3.938-3.872A3.9,3.9,0,0,0-65.9,15a7.348,7.348,0,0,0-3.52-.726h-1.958a2.172,2.172,0,0,0-2.464,2.464V28.878a.9.9,0,0,0,.99.858.9.9,0,0,0,.99-.858Zm0-1.54V16.69c0-.572.286-.836.858-.836h1.254c2.464,0,3.872.99,3.872,2.728,0,1.826-1.474,2.882-4.07,2.882Zm13.992.968h5.94a.717.717,0,0,0,.748-.792.722.722,0,0,0-.748-.77h-5.94V16.558a.609.609,0,0,1,.682-.66h6.138a.754.754,0,0,0,.748-.836.74.74,0,0,0-.748-.792h-6.292a2.2,2.2,0,0,0-2.486,2.486V27.1a2.2,2.2,0,0,0,2.486,2.486h6.512a.779.779,0,0,0,.748-.836.766.766,0,0,0-.748-.836h-6.2a.745.745,0,0,1-.836-.836Zm17.116-8.492c-3.982,0-6.864,3.366-6.864,8.008,0,4.62,2.838,7.942,6.82,7.942a6.782,6.782,0,0,0,4.994-2.068,2.483,2.483,0,0,0,.814-1.5.926.926,0,0,0-.968-.924.883.883,0,0,0-.814.528,4.584,4.584,0,0,1-3.96,2.222c-2.684,0-4.708-2.662-4.708-6.182A7,7,0,0,1-44.1,17.394a4.373,4.373,0,0,1,3.388-1.76,4.062,4.062,0,0,1,3.7,2.156,1.009,1.009,0,0,0,.924.594.98.98,0,0,0,1.012-.924,3.909,3.909,0,0,0-1.958-2.486A6.665,6.665,0,0,0-40.755,13.94Zm14.784,0c-4.048,0-6.644,3.1-6.644,7.942,0,4.906,2.552,8.008,6.622,8.008,4.048,0,6.622-3.1,6.622-7.986C-19.371,17.086-21.967,13.94-25.971,13.94Zm-.044,1.628c2.772,0,4.532,2.464,4.532,6.314,0,3.784-1.8,6.314-4.51,6.314s-4.51-2.508-4.51-6.314C-30.5,18.054-28.743,15.568-26.015,15.568Zm11.7.418h.11c.4,1.3,1.188,3.7,1.606,4.774l2.618,7.128a1.079,1.079,0,0,0,1.144.792,1.1,1.1,0,0,0,1.1-.792l2.618-7.128c.44-1.188,1.166-3.344,1.606-4.774h.11l-.022.33C-3.553,19.044-3.6,20.342-3.6,21.4v7.5a.866.866,0,0,0,.946.836A.878.878,0,0,0-1.7,28.9V15.722a1.48,1.48,0,0,0-1.518-1.606c-1.012,0-1.452.4-1.936,1.738l-2.4,6.534c-.528,1.452-.99,2.86-1.254,3.806H-8.9c-.308-1.1-.638-2.134-1.254-3.806l-2.4-6.534c-.484-1.32-.946-1.738-1.914-1.738A1.473,1.473,0,0,0-16,15.722V28.9a.866.866,0,0,0,.946.836.866.866,0,0,0,.946-.836V21.4c0-1.1-.044-2.332-.176-5.1Zm18.348,0h.11c.4,1.3,1.188,3.7,1.606,4.774l2.618,7.128a1.079,1.079,0,0,0,1.144.792,1.1,1.1,0,0,0,1.1-.792l2.618-7.128c.44-1.188,1.166-3.344,1.606-4.774h.11l-.022.33c-.132,2.728-.176,4.026-.176,5.082v7.5a.866.866,0,0,0,.946.836.878.878,0,0,0,.946-.836V15.722a1.48,1.48,0,0,0-1.518-1.606c-1.012,0-1.452.4-1.936,1.738l-2.4,6.534c-.528,1.452-.99,2.86-1.254,3.806H9.449c-.308-1.1-.638-2.134-1.254-3.806L5.8,15.854c-.484-1.32-.946-1.738-1.914-1.738a1.473,1.473,0,0,0-1.54,1.606V28.9a.866.866,0,0,0,.946.836.866.866,0,0,0,.946-.836V21.4c0-1.1-.044-2.332-.176-5.1ZM22.8,22.432h5.94a.782.782,0,0,0,0-1.562H22.8V16.558a.609.609,0,0,1,.682-.66h6.138a.754.754,0,0,0,.748-.836.74.74,0,0,0-.748-.792H23.331a2.2,2.2,0,0,0-2.486,2.486V27.1a2.2,2.2,0,0,0,2.486,2.486h6.512a.779.779,0,0,0,.748-.836.766.766,0,0,0-.748-.836h-6.2a.745.745,0,0,1-.836-.836ZM35.629,16.14l.132.286c1.232,2.574,1.386,2.9,1.892,3.784l4.774,8.162c.594,1.012.99,1.342,1.628,1.342.726,0,1.122-.506,1.122-1.386V14.952a.842.842,0,0,0-.946-.836.861.861,0,0,0-.968.836v6.336c0,1.21.066,3.96.154,5.258h-.088l-.33-.66a38.2,38.2,0,0,0-1.782-3.52l-3.96-6.776c-.638-1.1-1.144-1.474-1.958-1.474a1.445,1.445,0,0,0-1.518,1.474V28.9a.978.978,0,0,0,1.936,0V21.684c0-2.244-.066-4.29-.176-5.544Zm16.39-1.87a2.347,2.347,0,0,0-2.662,2.662V26.92a2.365,2.365,0,0,0,2.662,2.662h1.188a9.554,9.554,0,0,0,5.082-1.166,7.283,7.283,0,0,0,3.3-6.556c0-4.818-2.992-7.59-8.228-7.59Zm-.682,2.684a.907.907,0,0,1,1.012-1.012h.792a7.232,7.232,0,0,1,3.96.9,5.774,5.774,0,0,1,2.4,5.082,5.806,5.806,0,0,1-2.222,4.928,7.3,7.3,0,0,1-4.246,1.034h-.682a.907.907,0,0,1-1.012-1.012Zm18.282,3.828c-2.552-1.1-3.08-1.584-3.08-2.838a2.41,2.41,0,0,1,2.706-2.376A3.536,3.536,0,0,1,72.237,17c.308.418.528.55.9.55a.9.9,0,0,0,.9-.88c0-1.32-2.442-2.706-4.774-2.706-2.794,0-4.73,1.716-4.73,4.2a3.2,3.2,0,0,0,1.21,2.618,10.408,10.408,0,0,0,2.574,1.386l.528.22c2.772,1.166,3.586,1.892,3.586,3.322,0,1.474-1.21,2.508-2.97,2.508A4.29,4.29,0,0,1,66.143,26.7a1.051,1.051,0,0,0-.946-.528.883.883,0,0,0-.88.88c0,.572.462,1.122,1.43,1.76a6.336,6.336,0,0,0,3.74,1.078c3.014,0,4.994-1.738,4.994-4.378a3.785,3.785,0,0,0-1.144-2.75,8.478,8.478,0,0,0-2.728-1.54l-.286-.132Z" transform="translate(73.843 16.214)"/>
</svg>
