<svg id="ribbon" xmlns="http://www.w3.org/2000/svg" width="70" height="112" viewBox="0 0 70 112">
  <g id="グループ_104" data-name="グループ 104" transform="translate(-270 -2272)" style="isolation: isolate">
    <circle id="base" cx="35" cy="35" r="35" transform="translate(270 2314)" fill="#ce6f97"/>
    <path id="長方形_4" data-name="長方形 4" d="M270,2272h70v79.563H270Z" fill="#ce6f97"/>
  </g>
  <path id="パス_2639" data-name="パス 2639" d="M-22.56-11.68c-2.944,0-4.832,2.256-4.832,5.776,0,3.568,1.856,5.824,4.816,5.824,2.944,0,4.816-2.256,4.816-5.808C-17.76-9.392-19.648-11.68-22.56-11.68Zm-.032,1.184c2.016,0,3.3,1.792,3.3,4.592,0,2.752-1.312,4.592-3.28,4.592s-3.28-1.824-3.28-4.592C-25.856-8.688-24.576-10.5-22.592-10.5Zm8.64.416.1.208C-12.96-8-12.848-7.76-12.48-7.12l3.472,5.936c.432.736.72.976,1.184.976.528,0,.816-.368.816-1.008v-9.728a.612.612,0,0,0-.688-.608.626.626,0,0,0-.7.608v4.608c0,.88.048,2.88.112,3.824h-.064l-.24-.48a27.783,27.783,0,0,0-1.3-2.56l-2.88-4.928c-.464-.8-.832-1.072-1.424-1.072a1.051,1.051,0,0,0-1.1,1.072V-.8a.635.635,0,0,0,.7.608.635.635,0,0,0,.7-.608V-6.048c0-1.632-.048-3.12-.128-4.032Zm11.408-.848a.657.657,0,0,0-.736-.624.652.652,0,0,0-.72.624v8.9A1.527,1.527,0,0,0-2.272-.3h4.1A.6.6,0,0,0,2.4-.944a.591.591,0,0,0-.576-.64H-1.824a.643.643,0,0,1-.72-.72Zm8.352,0a.652.652,0,0,0-.72-.624.652.652,0,0,0-.72.624V-.816a.652.652,0,0,0,.72.624.652.652,0,0,0,.72-.624Zm4.624.848.1.208C11.424-8,11.536-7.76,11.9-7.12l3.472,5.936c.432.736.72.976,1.184.976.528,0,.816-.368.816-1.008v-9.728a.612.612,0,0,0-.688-.608.626.626,0,0,0-.7.608v4.608c0,.88.048,2.88.112,3.824h-.064l-.24-.48a27.783,27.783,0,0,0-1.3-2.56l-2.88-4.928c-.464-.8-.832-1.072-1.424-1.072a1.051,1.051,0,0,0-1.1,1.072V-.8a.635.635,0,0,0,.7.608A.635.635,0,0,0,10.5-.8V-6.048c0-1.632-.048-3.12-.128-4.032ZM21.872-5.5h4.32a.522.522,0,0,0,.544-.576.525.525,0,0,0-.544-.56h-4.32V-9.776a.443.443,0,0,1,.5-.48h4.464a.548.548,0,0,0,.544-.608.538.538,0,0,0-.544-.576H22.256a1.6,1.6,0,0,0-1.808,1.808v7.52A1.6,1.6,0,0,0,22.256-.3h4.736a.566.566,0,0,0,.544-.608.557.557,0,0,0-.544-.608H22.48a.542.542,0,0,1-.608-.608ZM-20.064,13.3c-1.856-.8-2.24-1.152-2.24-2.064A1.753,1.753,0,0,1-20.336,9.5a2.572,2.572,0,0,1,2.176,1.04c.224.3.384.4.656.4a.656.656,0,0,0,.656-.64c0-.96-1.776-1.968-3.472-1.968-2.032,0-3.44,1.248-3.44,3.056a2.33,2.33,0,0,0,.88,1.9A7.57,7.57,0,0,0-21.008,14.3l.384.16c2.016.848,2.608,1.376,2.608,2.416a1.922,1.922,0,0,1-2.16,1.824,3.12,3.12,0,0,1-2.416-1.1.764.764,0,0,0-.688-.384.642.642,0,0,0-.64.64c0,.416.336.816,1.04,1.28a4.608,4.608,0,0,0,2.72.784c2.192,0,3.632-1.264,3.632-3.184a2.752,2.752,0,0,0-.832-2,6.166,6.166,0,0,0-1.984-1.12l-.208-.1Zm8.48-3.536v9.424a.643.643,0,0,0,.72.624.652.652,0,0,0,.72-.624V9.76h3.088a.551.551,0,0,0,.56-.608.564.564,0,0,0-.56-.592h-7.616a.56.56,0,0,0-.56.608.546.546,0,0,0,.56.592ZM-.416,8.32c-2.944,0-4.832,2.256-4.832,5.776,0,3.568,1.856,5.824,4.816,5.824,2.944,0,4.816-2.256,4.816-5.808C4.384,10.608,2.5,8.32-.416,8.32ZM-.448,9.5c2.016,0,3.3,1.792,3.3,4.592,0,2.752-1.312,4.592-3.28,4.592s-3.28-1.824-3.28-4.592C-3.712,11.312-2.432,9.5-.448,9.5Zm8.736,5.408h.96c1.568,0,2.16.656,3.84,4.128.3.656.432.768.864.768.448,0,.784-.24.784-.56a11.957,11.957,0,0,0-1.824-3.424,3.4,3.4,0,0,0-1.648-1.344v-.048c1.792-.272,2.864-1.328,2.864-2.816a2.834,2.834,0,0,0-1.5-2.528,5.344,5.344,0,0,0-2.56-.528H8.64a1.58,1.58,0,0,0-1.792,1.792v8.832a.652.652,0,0,0,.72.624.652.652,0,0,0,.72-.624Zm0-1.12V10.32c0-.416.208-.608.624-.608h.912c1.792,0,2.816.72,2.816,1.984,0,1.328-1.072,2.1-2.96,2.1Zm10.176.7h4.32a.569.569,0,0,0,0-1.136h-4.32V10.224a.443.443,0,0,1,.5-.48h4.464a.548.548,0,0,0,.544-.608.538.538,0,0,0-.544-.576H18.848a1.6,1.6,0,0,0-1.808,1.808v7.52A1.6,1.6,0,0,0,18.848,19.7h4.736a.566.566,0,0,0,.544-.608.557.557,0,0,0-.544-.608H19.072a.542.542,0,0,1-.608-.608ZM-11.856,29.92H-14.64a.5.5,0,0,0-.5.544.511.511,0,0,0,.5.544h4.416a16.574,16.574,0,0,1-.816,4C-11.872,34-11.872,34-13.008,32.72c-.272-.3-.336-.352-.544-.352a.637.637,0,0,0-.608.576.582.582,0,0,0,.224.464c.608.672,1.52,1.744,2.416,2.88A10.073,10.073,0,0,1-14.3,39.776c-.48.336-.528.4-.528.672a.661.661,0,0,0,.624.688c.208,0,.368-.1.816-.48a12.374,12.374,0,0,0,2.656-3.344c.144.192.288.4.464.64a10.688,10.688,0,0,1,.784,1.1.672.672,0,0,0,.5.24.622.622,0,0,0,.624-.608c0-.24,0-.24-.768-1.3l-.784-1.024-.256-.32a19.8,19.8,0,0,0,1.152-5.04h1.008a.725.725,0,0,0-.048.256.516.516,0,0,0,.5.56h3.68v7.408c0,.384-.112.48-.56.48-.5,0-1.216-.048-1.616-.1a1.809,1.809,0,0,0-.224-.016c-.288,0-.5.256-.5.624,0,.56.432.688,2.272.688,1.424,0,1.808-.272,1.808-1.248v-7.84H-1.28a.528.528,0,0,0,.512-.56.528.528,0,0,0-.512-.56h-1.5V27.376a.549.549,0,0,0-.592-.528.54.54,0,0,0-.592.528V30.7H-7.76a.585.585,0,0,0,.048-.24.5.5,0,0,0-.48-.544H-10.7V27.36a.535.535,0,0,0-.576-.528.535.535,0,0,0-.576.528Zm4.576,2.992a.638.638,0,0,0-.656.592c0,.16.016.208.176.448A25.084,25.084,0,0,1-6.3,36.528c.24.464.336.544.656.544a.622.622,0,0,0,.64-.64.834.834,0,0,0-.1-.352c-.32-.64-.8-1.488-1.168-2.064C-6.976,32.96-7.008,32.912-7.28,32.912Zm15.3-3.952H3.472a1.1,1.1,0,0,0-1.248,1.248v3.728A11.167,11.167,0,0,1,1.1,39.472c-.3.544-.3.544-.3.72a.7.7,0,0,0,.7.656c.352,0,.608-.3.992-1.184.672-1.536.976-3.664.976-6.96V30.48a.349.349,0,0,1,.4-.4H14.48a.562.562,0,0,0,0-1.12H9.3V27.344a.591.591,0,0,0-.64-.576.591.591,0,0,0-.64.576Zm.032,1.584a.683.683,0,0,0-.56.624.584.584,0,0,0,.288.464c.464.4,1.2,1.1,1.776,1.712.3.32.384.368.608.368a.635.635,0,0,0,.624-.624.623.623,0,0,0-.208-.464,15.328,15.328,0,0,0-1.44-1.392C8.464,30.672,8.272,30.544,8.048,30.544Zm.112,3.072a.549.549,0,0,0-.592-.528.54.54,0,0,0-.592.528v6c0,.88.64,1.184,2.528,1.184a7.369,7.369,0,0,0,1.76-.176,1.1,1.1,0,0,0,.944-.96,14.85,14.85,0,0,0,.208-2.24c0-.48-.192-.7-.624-.7-.448,0-.64.192-.64.688a5.26,5.26,0,0,1-.24,1.92c-.128.24-.432.3-1.5.3-1.056,0-1.248-.112-1.248-.72Zm-2.768.512c-.3,0-.464.16-.528.5a15.847,15.847,0,0,1-1.1,3.888c-.192.416-.224.5-.224.656a.653.653,0,0,0,.672.576c.368,0,.528-.176.832-.944a19.306,19.306,0,0,0,1.04-4.08C6.08,34.352,5.808,34.128,5.392,34.128Zm7.056-.288a.708.708,0,0,0-.688.608.847.847,0,0,0,.176.448,31.7,31.7,0,0,1,1.952,3.632c.16.336.16.336.176.368a.639.639,0,0,0,.544.32.7.7,0,0,0,.672-.656,16.127,16.127,0,0,0-1.616-3.28C12.944,34.08,12.736,33.84,12.448,33.84Z" transform="translate(34.828 39)" fill="#fff"/>
</svg>
