<svg xmlns="http://www.w3.org/2000/svg" width="355.776" height="25.33" viewBox="0 0 355.776 25.33">
  <path id="パス_2614" data-name="パス 2614" d="M-169.541-17.918h-4.318a.746.746,0,0,0-.714.816.735.735,0,0,0,.714.782h4.046l-1.02,5.474h-3.332a.752.752,0,0,0-.748.816.793.793,0,0,0,.748.816h3.094l-1.6,8.3a.957.957,0,0,0-.034.272.877.877,0,0,0,.986.918.919.919,0,0,0,.918-.85l1.666-8.636h4.624L-165.9-.884a1.171,1.171,0,0,0-.034.306c0,.544.374.85.986.85.544,0,.782-.238.884-.782l1.53-8.7h4.454a.746.746,0,0,0,.714-.816.727.727,0,0,0-.714-.816h-4.25l.986-5.474h3.468a.735.735,0,0,0,.714-.782.746.746,0,0,0-.714-.816h-3.264l1.088-6.018a.664.664,0,0,0,.034-.238.949.949,0,0,0-1.054-.884c-.51,0-.816.272-.918.85l-1.088,6.29h-4.454l1.122-5.984a.845.845,0,0,0,.034-.272c0-.544-.374-.884-1.02-.884a.9.9,0,0,0-.952.816Zm1.734,1.6h4.522l-.986,5.474h-4.59Zm29.172,2.074c-3.944-1.7-4.76-2.448-4.76-4.386,0-2.21,1.666-3.672,4.182-3.672a5.465,5.465,0,0,1,4.624,2.21c.476.646.816.85,1.394.85A1.394,1.394,0,0,0-131.8-20.6c0-2.04-3.774-4.182-7.378-4.182-4.318,0-7.31,2.652-7.31,6.494a4.951,4.951,0,0,0,1.87,4.046,16.086,16.086,0,0,0,3.978,2.142l.816.34c4.284,1.8,5.542,2.924,5.542,5.134,0,2.278-1.87,3.876-4.59,3.876A6.63,6.63,0,0,1-144.007-5.1a1.624,1.624,0,0,0-1.462-.816,1.364,1.364,0,0,0-1.36,1.36c0,.884.714,1.734,2.21,2.72a9.792,9.792,0,0,0,5.78,1.666c4.658,0,7.718-2.686,7.718-6.766a5.849,5.849,0,0,0-1.768-4.25c-.85-.782-1.462-1.156-4.216-2.38l-.442-.2Zm15.98,2.55H-111.3v9.962a1.366,1.366,0,0,0,1.53,1.326,1.385,1.385,0,0,0,1.53-1.326V-23.222a1.385,1.385,0,0,0-1.53-1.326,1.385,1.385,0,0,0-1.53,1.326v9.044h-11.356v-9.044a1.385,1.385,0,0,0-1.53-1.326,1.385,1.385,0,0,0-1.53,1.326V-1.734a1.385,1.385,0,0,0,1.53,1.326,1.385,1.385,0,0,0,1.53-1.326ZM-92.667-24.82c-6.256,0-10.268,4.794-10.268,12.274C-102.935-4.964-98.991-.17-92.7-.17c6.256,0,10.234-4.794,10.234-12.342C-82.467-19.958-86.479-24.82-92.667-24.82Zm-.068,2.516c4.284,0,7,3.808,7,9.758,0,5.848-2.788,9.758-6.97,9.758s-6.97-3.876-6.97-9.758C-99.671-18.462-96.951-22.3-92.735-22.3Zm18.53,12.07h3.2c6.052,0,9.282-2.55,9.282-7.276,0-4.318-3.3-6.8-9.078-6.8h-2.686q-3.774,0-3.774,3.774v18.8a1.385,1.385,0,0,0,1.53,1.326,1.385,1.385,0,0,0,1.53-1.326Zm0-2.414v-7.616a1.426,1.426,0,0,1,1.564-1.6h1.6c3.842,0,6.12,1.666,6.12,4.454a4.276,4.276,0,0,1-2.108,3.944,8.84,8.84,0,0,1-4.488.816Zm28.9,1.836h2.04c3.332,0,4.59,1.394,8.16,8.772.646,1.394.918,1.632,1.836,1.632.952,0,1.666-.51,1.666-1.19,0-.918-1.836-4.318-3.876-7.276a7.23,7.23,0,0,0-3.5-2.856v-.1c3.808-.578,6.086-2.822,6.086-5.984a6.021,6.021,0,0,0-3.2-5.372,11.356,11.356,0,0,0-5.44-1.122h-3.026c-2.55,0-3.808,1.258-3.808,3.808V-1.734a1.385,1.385,0,0,0,1.53,1.326,1.385,1.385,0,0,0,1.53-1.326Zm0-2.38V-20.57c0-.884.442-1.292,1.326-1.292h1.938c3.808,0,5.984,1.53,5.984,4.216,0,2.822-2.278,4.454-6.29,4.454Zm21.624,1.5h9.18a1.108,1.108,0,0,0,1.156-1.224A1.116,1.116,0,0,0-14.5-14.11h-9.18v-6.664a.941.941,0,0,1,1.054-1.02h9.486a1.165,1.165,0,0,0,1.156-1.292,1.144,1.144,0,0,0-1.156-1.224h-9.724c-2.55,0-3.842,1.292-3.842,3.842v15.98c0,2.55,1.292,3.842,3.842,3.842H-12.8a1.2,1.2,0,0,0,1.156-1.292A1.184,1.184,0,0,0-12.8-3.23h-9.588a1.151,1.151,0,0,1-1.292-1.292ZM2.771-24.82c-6.154,0-10.608,5.2-10.608,12.376C-7.837-5.3-3.451-.17,2.7-.17a10.481,10.481,0,0,0,7.718-3.2,3.838,3.838,0,0,0,1.258-2.312,1.432,1.432,0,0,0-1.5-1.428,1.364,1.364,0,0,0-1.258.816,7.084,7.084,0,0,1-6.12,3.434c-4.148,0-7.276-4.114-7.276-9.554,0-3.026.68-5.372,2.074-7.072A6.759,6.759,0,0,1,2.839-22.2c2.482,0,4.182.986,5.712,3.332a1.559,1.559,0,0,0,1.428.918,1.514,1.514,0,0,0,1.564-1.428c0-1.088-1.292-2.72-3.026-3.842A10.3,10.3,0,0,0,2.771-24.82Zm22.848,0c-6.256,0-10.268,4.794-10.268,12.274C15.351-4.964,19.295-.17,25.585-.17c6.256,0,10.234-4.794,10.234-12.342C35.819-19.958,31.807-24.82,25.619-24.82ZM25.551-22.3c4.284,0,7,3.808,7,9.758,0,5.848-2.788,9.758-6.97,9.758s-6.97-3.876-6.97-9.758C18.615-18.462,21.335-22.3,25.551-22.3Zm18.088.646h.17c.612,2.006,1.836,5.712,2.482,7.378L50.337-3.264A1.668,1.668,0,0,0,52.105-2.04a1.7,1.7,0,0,0,1.7-1.224L57.851-14.28c.68-1.836,1.8-5.168,2.482-7.378h.17l-.034.51c-.2,4.216-.272,6.222-.272,7.854V-1.7A1.338,1.338,0,0,0,61.659-.408,1.357,1.357,0,0,0,63.121-1.7V-22.066a2.287,2.287,0,0,0-2.346-2.482c-1.564,0-2.244.612-2.992,2.686l-3.706,10.1c-.816,2.244-1.53,4.42-1.938,5.882H52c-.476-1.7-.986-3.3-1.938-5.882l-3.706-10.1c-.748-2.04-1.462-2.686-2.958-2.686a2.277,2.277,0,0,0-2.38,2.482V-1.7A1.338,1.338,0,0,0,42.483-.408,1.338,1.338,0,0,0,43.945-1.7V-13.294c0-1.7-.068-3.6-.272-7.888Zm28.356,0h.17c.612,2.006,1.836,5.712,2.482,7.378L78.693-3.264A1.668,1.668,0,0,0,80.461-2.04a1.7,1.7,0,0,0,1.7-1.224L86.207-14.28c.68-1.836,1.8-5.168,2.482-7.378h.17l-.034.51c-.2,4.216-.272,6.222-.272,7.854V-1.7A1.338,1.338,0,0,0,90.015-.408,1.357,1.357,0,0,0,91.477-1.7V-22.066a2.287,2.287,0,0,0-2.346-2.482c-1.564,0-2.244.612-2.992,2.686l-3.706,10.1c-.816,2.244-1.53,4.42-1.938,5.882h-.136c-.476-1.7-.986-3.3-1.938-5.882l-3.706-10.1c-.748-2.04-1.462-2.686-2.958-2.686a2.277,2.277,0,0,0-2.38,2.482V-1.7A1.338,1.338,0,0,0,70.839-.408,1.338,1.338,0,0,0,72.3-1.7V-13.294c0-1.7-.068-3.6-.272-7.888ZM101-11.7h9.18a1.108,1.108,0,0,0,1.156-1.224,1.116,1.116,0,0,0-1.156-1.19H101v-6.664a.941.941,0,0,1,1.054-1.02h9.486a1.165,1.165,0,0,0,1.156-1.292,1.144,1.144,0,0,0-1.156-1.224h-9.724c-2.55,0-3.842,1.292-3.842,3.842v15.98c0,2.55,1.292,3.842,3.842,3.842h10.064a1.2,1.2,0,0,0,1.156-1.292,1.184,1.184,0,0,0-1.156-1.292h-9.588A1.151,1.151,0,0,1,101-4.522Zm19.822-9.724.2.442c1.9,3.978,2.142,4.488,2.924,5.848l7.378,12.614c.918,1.564,1.53,2.074,2.516,2.074,1.122,0,1.734-.782,1.734-2.142V-23.256a1.3,1.3,0,0,0-1.462-1.292,1.33,1.33,0,0,0-1.5,1.292v9.792c0,1.87.1,6.12.238,8.126h-.136l-.51-1.02a59.035,59.035,0,0,0-2.754-5.44l-6.12-10.472c-.986-1.7-1.768-2.278-3.026-2.278a2.233,2.233,0,0,0-2.346,2.278V-1.7a1.349,1.349,0,0,0,1.5,1.292,1.349,1.349,0,0,0,1.5-1.292V-12.852c0-3.468-.1-6.63-.272-8.568Zm25.33-2.89c-2.754,0-4.114,1.36-4.114,4.114V-4.76c0,2.72,1.394,4.114,4.114,4.114h1.836a14.765,14.765,0,0,0,7.854-1.8c3.264-1.972,5.1-5.576,5.1-10.132,0-7.446-4.624-11.73-12.716-11.73ZM145.1-20.162a1.4,1.4,0,0,1,1.564-1.564h1.224A11.178,11.178,0,0,1,154-20.332c2.346,1.462,3.706,4.352,3.706,7.854,0,3.332-1.258,6.12-3.434,7.616a11.281,11.281,0,0,1-6.562,1.6h-1.054A1.4,1.4,0,0,1,145.1-4.828Zm28.254,5.916c-3.944-1.7-4.76-2.448-4.76-4.386,0-2.21,1.666-3.672,4.182-3.672a5.465,5.465,0,0,1,4.624,2.21c.476.646.816.85,1.394.85a1.394,1.394,0,0,0,1.394-1.36c0-2.04-3.774-4.182-7.378-4.182-4.318,0-7.31,2.652-7.31,6.494a4.951,4.951,0,0,0,1.87,4.046,16.086,16.086,0,0,0,3.978,2.142l.816.34c4.284,1.8,5.542,2.924,5.542,5.134,0,2.278-1.87,3.876-4.59,3.876A6.63,6.63,0,0,1,167.977-5.1a1.624,1.624,0,0,0-1.462-.816,1.364,1.364,0,0,0-1.36,1.36c0,.884.714,1.734,2.21,2.72a9.792,9.792,0,0,0,5.78,1.666c4.658,0,7.718-2.686,7.718-6.766a5.849,5.849,0,0,0-1.768-4.25c-.85-.782-1.462-1.156-4.216-2.38l-.442-.2Z" transform="translate(174.913 25.058)"/>
</svg>
